<?xml version="1.0" encoding="UTF-8"?>
<svg width="240px" height="63px" viewBox="0 0 240 63" version="1.1" xmlns="http://www.w3.org/2000/svg" xmlns:xlink="http://www.w3.org/1999/xlink">
    <!-- Generator: Sketch 53.1 (72631) - https://sketchapp.com -->
    <title>LosaGroup-white</title>
    <desc>Created with Sketch.</desc>
    <g id="Mockups" stroke="none" stroke-width="1" fill="none" fill-rule="evenodd">
        <g id="Home-b" transform="translate(-600.000000, -91.000000)" fill="#FFFFFF" fill-rule="nonzero">
            <g id="LosaGroup-white" transform="translate(600.000000, 91.000000)">
                <polygon id="Path" points="86.5581788 1 81 1 81 37 105 37 105 35.214152 86.5581788 35.214152"></polygon>
                <path d="M147.376367,5.3358916 C145.570354,3.6616332 143.468478,2.33866735 141.178287,1.43468772 C136.23795,-0.478229241 130.762186,-0.478229241 125.821848,1.43468772 C123.530462,2.33630245 121.428168,3.65953079 119.623768,5.3358916 C117.880315,6.9750017 116.478887,8.94371509 115.500524,11.1281875 C114.495849,13.3668239 113.984285,15.7955696 114.000563,18.2495376 C113.987268,19.9319442 114.20969,21.6079121 114.661339,23.2285317 C115.111464,24.7946916 115.759878,26.296825 116.590805,27.6983857 C117.425627,29.0894983 118.438588,30.3654436 119.603945,31.4937942 C120.791962,32.639298 122.124861,33.6240841 123.568602,34.4230032 C125.048364,35.2448865 126.624211,35.8800914 128.260113,36.3140953 C133.379858,37.6737745 138.826909,36.9959897 143.457965,34.4230032 C146.321714,32.826756 148.718209,30.5084332 150.40933,27.6983857 C151.241548,26.292805 151.890003,24.7861316 152.338797,23.2153073 C152.788714,21.5988457 153.011115,19.9274866 152.999573,18.2495376 C153.006948,15.794393 152.488729,13.3661453 151.479788,11.1281875 C150.501425,8.94371509 149.099997,6.9750017 147.356544,5.3358916 M145.612095,25.2055825 C145.118941,27.1863522 144.280089,29.0644074 143.134184,30.7532267 C142.085656,32.2864984 140.688348,33.5487745 139.057195,34.4362276 C137.339269,35.3402503 135.420888,35.795149 133.480244,35.7586696 C129.592281,35.8657087 125.919913,33.9746501 123.747011,30.7466145 C122.599487,29.0611665 121.766671,27.1815872 121.288924,25.1989703 C120.727047,22.9235424 120.451789,20.586723 120.469561,18.2429254 C120.449913,15.9295436 120.725256,13.6231032 121.288924,11.3794515 C121.772217,9.44379371 122.605291,7.61293416 123.747011,5.97727597 C124.809643,4.48747604 126.211776,3.27253427 127.837216,2.43313143 C129.589049,1.5626192 131.524646,1.12715688 133.480244,1.16358712 C135.414312,1.13077946 137.32764,1.56633196 139.057195,2.43313143 C140.67288,3.27886932 142.067197,4.49292221 143.127577,5.97727597 C144.275287,7.61290264 145.117079,9.4432397 145.612095,11.3794515 C146.195109,13.6199708 146.479505,15.9277965 146.457889,18.2429254 C146.477198,20.58842 146.192903,22.926543 145.612095,25.1989703" id="Shape"></path>
                <path d="M189.906483,20.939908 C188.914471,20.0573281 187.8388,19.2732618 186.69468,18.5987974 C185.482804,17.8779469 184.231194,17.1835497 182.986206,16.522219 C181.741219,15.8608883 180.482987,15.1995577 179.264488,14.538227 C178.113306,13.9394093 177.006739,13.2586872 175.953351,12.5013285 C175.060729,11.8640451 174.268362,11.0972705 173.602444,10.2263509 C172.995681,9.42723099 172.667716,8.45163602 172.668703,7.44876206 C172.673506,6.73080028 172.826817,6.02157472 173.119018,5.36557041 C173.424083,4.66919807 173.875819,4.04664589 174.443473,3.54029773 C175.092095,2.97757206 175.839891,2.54026667 176.64869,2.2507029 C177.639299,1.90211998 178.684565,1.73411828 179.73467,1.75470489 C180.938042,1.73891263 182.13557,1.92444575 183.277586,2.30360935 C184.290206,2.65467514 185.232055,3.18318814 186.058941,3.86434976 C186.888405,4.54527993 187.60183,5.35600881 188.171447,6.26498014 C188.708764,7.14448274 189.152656,8.07760925 189.495902,9.04918231 L192.065344,7.86540039 C191.66323,6.70940985 191.111083,5.61105844 190.42302,4.59842682 C189.756339,3.6078286 188.909495,2.75091517 187.926423,2.07214362 C186.879728,1.37203554 185.72224,0.853324868 184.502707,0.537856433 C183.038592,0.162012976 181.531003,-0.0181189139 180.019427,0.00217858048 C178.351506,-0.0257732912 176.690007,0.215409607 175.099078,0.716415717 C173.785343,1.13489421 172.567672,1.80921284 171.516428,2.70040776 C170.576826,3.51268673 169.828361,4.52208504 169.324455,5.65655591 C168.824475,6.82453708 168.571948,8.08321089 168.58276,9.35339443 C168.558629,10.5732765 168.838536,11.7800163 169.3973,12.8650603 C169.963199,13.9097775 170.699534,14.8529767 171.576028,15.6558758 C172.533591,16.5195559 173.576419,17.2839996 174.688497,17.9374667 C175.854017,18.5987974 177.072515,19.2931946 178.297636,19.9214587 C179.522757,20.5497229 180.747878,21.1912136 181.926642,21.8128645 C183.053655,22.4002175 184.126255,23.0862831 185.131823,23.8629896 C186.022247,24.544749 186.797983,25.3640857 187.429752,26.2900732 C188.032655,27.2038934 188.346452,28.277654 188.330381,29.3718742 C188.35202,30.2698632 188.122704,31.1561144 187.668154,31.9312239 C187.228602,32.660986 186.639599,33.2897577 185.93974,33.7763365 C185.212742,34.2842381 184.404246,34.6644549 183.5491,34.9005987 C181.535531,35.4551668 179.403198,35.4068748 177.416874,34.7617192 C176.362321,34.4261559 175.372547,33.9140487 174.489829,33.247272 C173.596791,32.5740926 172.818573,31.7611966 172.185277,30.8400283 C171.567698,29.940362 171.079517,28.9586446 170.734999,27.92356 L168,29.0676621 C168.42829,30.203529 168.997855,31.2811273 169.695302,32.2751159 C170.405446,33.2620258 171.27885,34.1208285 172.277989,34.8146257 C173.353967,35.5465634 174.544652,36.0941626 175.801039,36.4348859 C177.284634,36.8292952 178.815427,37.018438 180.350541,36.9970169 C182.226686,37.0317017 184.096138,36.7637228 185.886762,36.2034201 C187.339207,35.7533308 188.689145,35.0231046 189.860127,34.0540954 C190.875401,33.1868416 191.681314,32.101689 192.217656,30.8797081 C192.739347,29.6451465 193.00517,28.3178311 192.999085,26.9778571 C193.018519,25.8205227 192.728177,24.6789937 192.158056,23.6712037 C191.56096,22.6407999 190.803125,21.7120906 189.913105,20.9200681" id="Path"></path>
                <path d="M223.248147,0 L222.091013,0 L205,37 L207.387422,37 L213.073342,24.7275887 L228.947368,24.7275887 L234.460384,37 L240,37 L223.248147,0 Z M213.871366,22.9405415 L221.066882,7.3715697 L228.082842,22.9405415 L213.871366,22.9405415 Z" id="Shape"></path>
                <path d="M90.5837572,58.8073278 C90.5837572,57.6195888 90.2996478,57.4181594 89.454249,56.9041671 L89.454249,56.7374669 L94,56.7374669 L94,56.9041671 C93.1407422,57.4251052 92.8497032,57.5987513 92.8497032,58.8073278 L92.8497032,62.9748331 L92.4755103,62.9748331 L91.1311876,61.2522643 C90.2057862,62.4106755 88.7853266,63.0580963 87.3061044,62.9956706 C85.6044819,63.0599671 83.9540065,62.4057144 82.7565278,61.1922068 C81.5590492,59.9786992 80.9244322,58.3172721 81.0071903,56.6124417 C80.9597982,54.8410096 81.6468031,53.1290791 82.9047504,51.8839592 C84.1626977,50.6388393 85.8791237,49.9718468 87.6456499,50.0416751 C88.8505512,49.9794264 90.0420951,50.3189258 91.0341746,51.0071471 L92.0181634,50 L92.1636829,50 L92.1636829,54.0146968 L91.9835159,54.0146968 C90.8747962,52.1948861 89.7799354,50.8126635 87.8743233,50.8126635 C85.3242679,50.8126635 83.5711048,53.1325748 83.5711048,56.4596332 C83.5711048,59.6616664 85.2549729,61.8773901 87.8951118,61.8773901 C88.9446206,61.9269971 89.950856,61.4538868 90.5837572,60.6132468 L90.5837572,58.8073278 Z" id="Path"></path>
                <path d="M103.534961,60.8512397 C103.534961,62.0760331 103.837958,62.2837466 104.710877,62.8209366 L104.710877,63 L100,63 L100,62.8352617 C100.872919,62.2980716 101.175916,62.1190083 101.175916,60.8655647 L101.175916,52.1344353 C101.175916,50.9096419 100.872919,50.7019284 100,50.1504132 L100,50 L106.492786,50 C109.183685,50 111.40566,50.9454545 111.40566,53.4523416 C111.40566,55.6942149 109.465039,56.6754821 107.394562,56.7184573 L107.394562,56.7184573 C108.832416,56.7436088 110.083916,57.7009719 110.475028,59.0749311 L111.016093,60.6292011 C111.266549,61.6336866 112.013823,62.4430564 113,62.7779614 L113,63 L109.522752,63 C109.172466,62.362197 108.889605,61.6901135 108.67869,60.9944904 L108.007769,59.046281 C107.538846,57.7355372 107.055494,57.1195592 105.50444,57.1195592 L103.534961,57.1195592 L103.534961,60.8512397 Z M103.534961,56.3460055 L105.793008,56.3460055 C107.610988,56.3460055 108.895117,55.5652893 108.895117,53.4809917 C108.895117,51.661708 107.704772,50.7305785 105.793008,50.7305785 L103.534961,50.7305785 L103.534961,56.3460055 Z" id="Shape"></path>
                <path d="M123.425448,50.0019824 C126.060296,49.9709091 128.453027,51.5345191 129.482939,53.9604537 C130.512852,56.3863882 129.976,59.1942563 128.123832,61.068917 C126.271665,62.9435777 123.470954,63.5138051 121.033489,62.5125177 C118.596023,61.5112303 117.004476,59.1367062 117.004293,56.5011178 C116.940316,54.7720058 117.593668,53.0933297 118.809639,51.8625923 C120.025609,50.6318548 121.696064,49.9585027 123.425448,50.0019824 M123.425448,50.8518158 C120.897379,50.8518158 119.54629,52.9972967 119.54629,56.5011178 C119.54629,60.0049389 120.897379,62.1434539 123.425448,62.1434539 C125.953516,62.1434539 127.283712,59.997973 127.283712,56.5011178 C127.283712,53.0042625 125.932623,50.8518158 123.425448,50.8518158" id="Shape"></path>
                <path d="M145.260563,50.1483696 L145.260563,50 L149,50 L149,50.1483696 C148.126761,50.6994565 147.65493,50.9326087 147.65493,52.1407609 L147.65493,57.8777174 C147.65493,61.2831522 145.626761,63 142.584507,63 C139.119718,63 137.147887,61.1347826 137.147887,57.8918478 L137.147887,52.1054348 C137.147887,50.8972826 136.852113,50.6923913 136,50.1483696 L136,50 L140.591549,50 L140.591549,50.1483696 C139.739437,50.6994565 139.443662,50.8972826 139.443662,52.1054348 L139.443662,57.6869565 C139.443662,60.4494565 140.774648,61.8059783 142.964789,61.8059783 C145.15493,61.8059783 146.647887,60.6119565 146.647887,57.6869565 L146.647887,52.1407609 C146.647887,50.9326087 146.119718,50.7277174 145.239437,50.1483696" id="Path"></path>
                <path d="M157.461785,57.7570248 L157.461785,60.8512397 C157.461785,62.0187328 157.956326,62.2837466 159.016057,62.8209366 L159.016057,63 L154,63 L154,62.8352617 C154.861914,62.2980716 155.151574,62.1190083 155.151574,60.8655647 L155.151574,52.1344353 C155.151574,50.9096419 154.861914,50.7019284 154,50.1504132 L154,50 L160.019268,50 C163.007707,50 165,51.2820937 165,53.8749311 C165,56.4677686 162.965318,57.7570248 160.019268,57.7570248 L157.461785,57.7570248 Z M159.291586,56.9763085 C161.50289,56.9763085 162.619139,55.9735537 162.619139,53.8749311 C162.619139,51.7763085 161.50289,50.7807163 159.291586,50.7807163 L157.461785,50.7807163 L157.461785,56.9763085 L159.291586,56.9763085 Z" id="Shape"></path>
                <path d="M32.4628915,61.2094595 C44.8646412,56.7688925 53.1601574,44.8612665 53.1601574,31.5 C53.1601574,18.1387335 44.8646412,6.23110752 32.4628915,1.79054054 C48.1904563,2.38098874 60.640488,15.5078611 60.640488,31.5 C60.640488,47.4921389 48.1904563,60.6190113 32.4628915,61.2094595 M26.5980266,60.9121622 C26.0993136,60.8378378 25.6072501,60.7432432 25.1218361,60.6418919 C36.7506,55.785895 44.3425282,44.2752195 44.3425282,31.5 C44.3425282,18.7247805 36.7506,7.214105 25.1218361,2.35810811 C25.6072501,2.25675676 26.0993136,2.16891892 26.5980266,2.08783784 C40.9543594,4.23730643 51.5908776,16.7546058 51.5908776,31.5 C51.5908776,46.2453942 40.9543594,58.7626936 26.5980266,60.9121622 M19.7091377,58.9459459 C29.4544536,53.3585338 35.482075,42.8700769 35.482075,31.5 C35.482075,20.1299231 29.4544536,9.64146625 19.7091377,4.05405405 C20.513728,3.70945946 21.3382668,3.37837838 22.1761047,3.13513514 C34.3936249,7.01169825 42.7131877,18.5077662 42.7131877,31.5135135 C42.7131877,44.5192608 34.3936249,56.0153288 22.1761047,59.8918919 C21.3382668,59.6216216 20.513728,59.3175676 19.7091377,58.972973 M14.7885028,56.2702703 C22.257845,50.2881793 26.6251163,41.1638667 26.6445731,31.5 C26.6169988,21.8456242 22.250541,12.7329649 14.7885028,6.75675676 C15.7391786,6.11123402 16.7273174,5.5245826 17.7475332,5 C27.576208,10.0662234 33.7692961,20.3148163 33.7692961,31.5135135 C33.7692961,42.7122107 27.576208,52.9608036 17.7475332,58.027027 C16.7273174,57.5024444 15.7391786,56.915793 14.7885028,56.2702703 M10.0873016,52.3040541 C15.0657357,46.5604711 17.8086753,39.1672344 17.8007293,31.5135135 C17.8086753,23.8597926 15.0657357,16.4665559 10.0873016,10.722973 C11.0990192,9.67464154 12.1834565,8.70142217 13.3322608,7.81081081 C20.6137442,13.4436597 24.8983009,22.2009406 24.9223509,31.5 C24.9024384,40.803814 20.6174517,49.5669697 13.3322608,55.2027027 C12.1834565,54.3120913 11.0990192,53.338872 10.0873016,52.2905405 M8.91033891,50.9864865 C7.5963686,49.4589193 6.44203198,47.7968557 5.46589447,46.027027 C7.75935352,41.5389878 8.95885051,36.557022 8.96353496,31.5 C8.95885051,26.442978 7.75935352,21.4610122 5.46589447,16.972973 C6.44364011,15.2041754 7.59786356,13.5422748 8.91033891,12.0135135 C13.5391338,17.4150996 16.0856093,24.3376296 16.0785071,31.5 C16.0856093,38.6623704 13.5391338,45.5849004 8.91033891,50.9864865 M1.72222222,31.5 C1.72263292,27.1506398 2.66713331,22.8549061 4.48841699,18.9189189 C6.29951128,22.8650894 7.23910703,27.1660791 7.24131274,31.5202703 C7.23619999,35.8676227 6.29667315,40.161379 4.48841699,44.1013514 C2.66364166,40.1593931 1.719039,35.8562724 1.72222222,31.5 M31,0 C13.8791728,-1.06525716e-15 2.09669663e-15,14.1030304 0,31.5 C-2.09669663e-15,48.8969696 13.8791728,63 31,63 C48.1208272,63 62,48.8969696 62,31.5 C62,23.1456806 58.7339379,15.1335323 52.9203102,9.22613639 C47.1066825,3.31874047 39.2217112,5.11554527e-16 31,0" id="Shape"></path>
            </g>
        </g>
    </g>
</svg>